<?xml version="1.0" encoding="iso-8859-1"?>
<svg version="1.1" id="Layer_1" xmlns="http://www.w3.org/2000/svg" xmlns:xlink="http://www.w3.org/1999/xlink" x="0px" y="0px"
	 viewBox="0 -8 512 512" style="enable-background:new 0 0 511.999 511.999;" xml:space="preserve">
<circle style="fill:#333333;" cx="255.999" cy="236.276" r="244.276"/> <!-- black outline -->
<circle style="fill:#FDDF6D;" cx="255.999" cy="236.276" r="236.276"/> <!-- main face color -->
<path style="fill:#FCC56B;" d="M306.632,437.67c-130.491,0-236.275-105.783-236.275-236.275c0-69.717,30.201-132.372,78.226-175.619
	C72.091,64.886,19.725,144.465,19.725,236.275c0,130.491,105.783,236.275,236.275,236.275c60.775,0,116.184-22.953,158.048-60.654
	C381.821,428.373,345.313,437.67,306.632,437.67z"/>
<circle style="fill:#FFFFFF;" cx="381.366" cy="163.135" r="53.38"/> <!-- right eye white -->
<g><!-- cheeks -->
	<path style="fill:#F9A880;" d="M156.328,220.652c-17.546,0-31.772,14.225-31.772,31.771h63.543
		C188.1,234.877,173.874,220.652,156.328,220.652z"/>
	<path style="fill:#F9A880;" d="M433.458,216.396c-17.546,0-31.772,14.225-31.772,31.772h63.543
		C465.229,230.62,451.004,216.396,433.458,216.396z"/>
</g>
<g>
	<circle style="fill:#7F184C;" cx="390.337" cy="163.135" r="19.224"/>
	<path style="fill:#7F184C;" d="M245.308,189.482c-3.374,0.001-6.648-1.779-8.406-4.937c-6.167-11.07-17.859-17.948-30.516-17.948
		c-12.343,0-24.194,6.978-30.93,18.213c-2.73,4.554-8.634,6.03-13.186,3.301c-4.554-2.73-6.031-8.633-3.301-13.186
		c10.189-16.995,28.358-27.552,47.418-27.552c19.625,0,37.753,10.658,47.31,27.817c2.584,4.637,0.918,10.491-3.719,13.074
		C248.497,189.091,246.891,189.482,245.308,189.482z"/>
	<path style="fill:#7F184C;" d="M301.896,400.607L301.896,400.607c-52.82,0-95.64-42.82-95.64-95.64l0,0h191.279l0,0
		C397.536,357.787,354.717,400.607,301.896,400.607z"/>
</g>
<path style="fill:#F2F2F2;" d="M229.592,304.967v14.929c0,6.295,5.103,11.397,11.397,11.397h121.812
	c6.295,0,11.397-5.103,11.397-11.397v-14.929H229.592z"/> <!-- upper teeth -->
<path style="fill:#FC4C59;" d="M330.285,352.788H263.08v0.112c-12.979,0.623-25.627,4.142-36.981,10.222
	c6.739,8.783,14.967,16.361,24.306,22.36c7.836,5.034,12.676,13.609,12.676,22.923v41.926c0,29.641,24.029,53.668,53.668,53.668l0,0
	c29.641,0,53.668-24.029,53.668-53.668v-57.41C370.418,370.756,352.45,352.788,330.285,352.788z"/> <!-- main tongue -->
<path style="fill:#BC3B4A;" d="M316.541,482.438c-5.308,0-9.612-4.302-9.612-9.612v-83.332c0-1.069-2.506-3.687-4.788-5.002
	c-4.645-2.571-6.293-8.401-3.722-13.045c2.571-4.645,8.453-6.307,13.098-3.737c1.498,0.829,14.635,8.483,14.635,21.785v83.332
	C326.153,478.136,321.849,482.438,316.541,482.438z"/> <!-- tongue crease -->
<ellipse transform="matrix(0.2723 -0.9622 0.9622 0.2723 132.4376 317.1604)" style="fill:#FCEB88;" cx="275.905" cy="71.021" rx="27.554" ry="49.341"/> <!-- forehead shine -->
</svg>
